<?xml version="1.0" encoding="UTF-8" standalone="no"?>
<svg width="184px" height="65px" viewBox="0 0 184 65" version="1.1" xmlns="http://www.w3.org/2000/svg" xmlns:xlink="http://www.w3.org/1999/xlink">
    <!-- Generator: Sketch 43.1 (39012) - http://www.bohemiancoding.com/sketch -->
    <title>Group</title>
    <desc>Created with Sketch.</desc>
    <defs>
        <linearGradient x1="-62.8814245%" y1="50%" x2="73.8905149%" y2="50%" id="linearGradient-1">
            <stop stop-color="#0C0C0C" stop-opacity="0.651183197" offset="0%"></stop>
            <stop stop-color="#D8D8D8" stop-opacity="0.101364357" offset="100%"></stop>
        </linearGradient>
    </defs>
    <g id="Symbols" stroke="none" stroke-width="1" fill="none" fill-rule="evenodd">
        <g id="Alco-Valves-Logo">
            <g id="Group">
                <g id="Page-1">
                    <path d="M16.6203,-0.0001 L0.0003,47.3249 L8.6773,47.3249 L30.4573,37.8659 L39.8633,64.9609 L49.2763,64.9609 L65.8903,17.6539 L65.9093,17.6309 L57.2313,17.6309 L57.2193,17.6359 L57.0443,17.7129 L35.4053,27.1609 L26.0303,-0.0001 L16.6203,-0.0001 Z M21.1593,10.5459 L27.9843,30.4009 L12.0613,37.3529 L21.1593,10.5459 Z M42.3343,47.3009 L42.3563,47.3009 L41.3243,44.3099 L38.0173,34.5209 L53.9913,27.9569 L52.7293,31.5769 L44.7373,54.4139 L42.3343,47.3009 Z" id="Fill-1" fill="#C8102E"></path>
                    <polygon id="Fill-2" fill="#282727" points="121.502 49.031 121.502 43.626 106.927 43.626 106.927 17.619 101.211 17.619 101.211 49.031"></polygon>
                    <path d="M87.388,43.059 L89.426,49.084 L95.407,49.084 L84.375,17.673 L78.128,17.673 L67.097,49.084 L72.857,49.084 L87.388,43.059 Z M85.616,37.92 L74.99,42.252 L81.141,24.674 L85.616,37.92 Z" id="Fill-3" fill="#282727"></path>
                    <g id="Group-10" transform="translate(67.000000, 16.961000)">
                        <path d="M79.604,23.171 C79.458,26.354 76.846,26.766 75.727,26.788 L69.641,26.788 C66.2,26.788 65.774,24.049 65.75,22.897 L65.75,10.047 C65.75,6.613 68.477,6.18 69.659,6.154 L75.727,6.154 C79.168,6.154 79.595,8.893 79.618,10.047 L79.618,10.166 L85.061,10.166 L85.061,10.047 C85.061,6.293 82.576,0.712 75.727,0.712 L69.641,0.712 C65.89,0.712 60.306,3.197 60.306,10.047 L60.306,22.897 C60.306,26.649 62.792,32.232 69.641,32.232 L75.727,32.232 C79.426,32.232 84.897,29.805 85.048,23.171 L79.604,23.171 Z" id="Fill-4" fill="#282727"></path>
                        <path d="M106.898937,32 L100.848515,32 C94.0396306,32 91.567,26.4487815 91.567,22.717468 L91.567,9.93949854 C91.567,3.13061393 97.1172017,0.659 100.848515,0.659 L106.898937,0.659 C113.708838,0.659 116.180452,6.20920175 116.180452,9.93949854 L116.180452,22.717468 C116.180452,29.5273694 110.629233,32 106.898937,32 L106.898937,32 Z M100.865799,6.07092964 C99.691503,6.0953306 96.9799463,6.52641423 96.9799463,9.93949854 L96.9799463,22.717468 C97.0033306,23.8632965 97.428314,26.5870537 100.848515,26.5870537 L106.898937,26.5870537 C108.044765,26.5636694 110.768522,26.1397027 110.768522,22.717468 L110.768522,9.93949854 C110.744121,8.79468682 110.321171,6.07092964 106.898937,6.07092964 L100.865799,6.07092964 Z" id="Fill-6" fill="#282727"></path>
                        <path d="M7.338,38.578 L5.795,38.578 L3.766,45.605 L1.723,38.578 L0.098,38.578 L2.887,47.788 L4.572,47.788 L7.338,38.578 Z M16.189,47.788 L13.234,38.578 L11.56,38.578 L8.604,47.788 L10.147,47.788 L10.694,46.021 L14.041,46.021 L14.587,47.788 L16.189,47.788 Z M13.567,44.515 L11.168,44.515 L12.367,40.631 L13.567,44.515 Z M25.044,47.788 L25.044,46.203 L21.138,46.203 L21.138,38.578 L19.607,38.578 L19.607,47.788 L25.044,47.788 Z M34.68,38.578 L33.137,38.578 L31.107,45.605 L29.065,38.578 L27.439,38.578 L30.229,47.788 L31.915,47.788 L34.68,38.578 Z M44.092,47.788 L44.092,46.268 L39.629,46.268 L39.629,43.748 L43.558,43.748 L43.558,42.241 L39.629,42.241 L39.629,40.098 L44.092,40.098 L44.092,38.578 L38.098,38.578 L38.098,47.788 L44.092,47.788 Z M54.798,45.047 C54.798,43.475 53.742,42.579 52.483,42.385 C51.938,42.306 51.189,42.241 50.655,42.15 C50.157,42.059 49.8,41.747 49.8,41.15 C49.8,40.813 49.907,40.578 50.086,40.371 C50.43,39.981 50.976,39.865 51.45,39.865 C51.902,39.865 52.46,40.046 52.733,40.358 C52.934,40.592 53.089,40.943 53.1,41.267 L54.668,41.267 C54.655,40.501 54.312,39.825 53.813,39.305 C53.243,38.721 52.365,38.409 51.463,38.409 C50.478,38.409 49.552,38.786 48.994,39.384 C48.554,39.865 48.258,40.474 48.258,41.202 C48.258,42.734 49.231,43.566 50.394,43.774 C50.953,43.878 51.688,43.904 52.258,44.021 C52.78,44.125 53.255,44.436 53.255,45.112 C53.255,45.554 53.113,45.775 52.923,45.995 C52.603,46.359 52.044,46.489 51.463,46.489 C50.976,46.489 50.406,46.384 50.05,45.995 C49.8,45.723 49.611,45.32 49.611,44.865 L48.044,44.865 C48.044,45.735 48.424,46.515 48.922,47.008 C49.611,47.697 50.549,47.956 51.439,47.956 C52.472,47.956 53.457,47.671 54.098,46.97 C54.514,46.515 54.798,45.905 54.798,45.047 L54.798,45.047 Z M71.405,47.788 L71.405,42.748 L67.915,42.748 L67.915,44.138 L69.921,44.138 C69.921,44.839 69.826,45.411 69.376,45.93 C69.091,46.256 68.663,46.463 68.117,46.463 C67.631,46.463 67.084,46.268 66.752,45.878 C66.171,45.216 66.087,44.034 66.087,43.189 C66.087,42.345 66.158,41.202 66.741,40.54 C67.073,40.15 67.631,39.916 68.117,39.916 C68.699,39.916 69.161,40.098 69.458,40.474 C69.637,40.708 69.803,40.955 69.826,41.319 L71.394,41.319 C71.346,40.514 71.038,39.929 70.622,39.462 C70.052,38.824 69.161,38.409 68.129,38.409 C67.227,38.409 66.265,38.786 65.624,39.487 C64.71,40.487 64.533,41.683 64.533,43.189 C64.533,44.696 64.746,45.93 65.624,46.931 C66.289,47.697 67.156,47.97 68.129,47.956 C69.186,47.944 69.993,47.307 70.242,46.775 L70.42,47.788 L71.405,47.788 Z M82.789,47.788 L81.247,44.021 C82.173,43.645 82.789,42.67 82.789,41.436 C82.789,39.955 81.876,38.578 79.869,38.578 L76.32,38.578 L76.32,47.788 L77.863,47.788 L77.863,44.306 L79.727,44.306 L81.127,47.788 L82.789,47.788 Z M81.258,41.436 C81.258,42.306 80.759,42.8 79.893,42.8 L77.851,42.8 L77.851,40.046 L79.869,40.046 C80.736,40.046 81.258,40.695 81.258,41.436 L81.258,41.436 Z M93.817,43.189 C93.817,41.683 93.663,40.449 92.749,39.448 C92.108,38.747 91.23,38.409 90.328,38.409 C89.425,38.409 88.547,38.747 87.906,39.448 C86.992,40.449 86.837,41.683 86.837,43.189 C86.837,44.696 86.992,45.917 87.906,46.917 C88.547,47.619 89.425,47.956 90.328,47.956 C91.23,47.956 92.108,47.619 92.749,46.917 C93.663,45.917 93.817,44.696 93.817,43.189 L93.817,43.189 Z M92.262,43.189 C92.262,44.034 92.239,45.164 91.657,45.826 C91.325,46.216 90.814,46.437 90.328,46.437 C89.841,46.437 89.33,46.216 88.998,45.826 C88.416,45.164 88.392,44.034 88.392,43.189 C88.392,42.345 88.416,41.202 88.998,40.54 C89.33,40.15 89.841,39.929 90.328,39.929 C90.814,39.929 91.325,40.15 91.657,40.54 C92.239,41.202 92.262,42.345 92.262,43.189 L92.262,43.189 Z M104.845,44.255 L104.845,38.578 L103.314,38.578 L103.314,44.229 C103.314,45.541 102.768,46.437 101.545,46.437 C100.322,46.437 99.777,45.541 99.777,44.229 L99.777,38.578 L98.245,38.578 L98.245,44.255 C98.245,46.45 99.373,47.956 101.545,47.956 C103.718,47.956 104.845,46.45 104.845,44.255 L104.845,44.255 Z M116.027,41.527 C116.027,39.76 114.994,38.578 113.06,38.578 L109.76,38.578 L109.76,47.788 L111.279,47.788 L111.279,44.488 L113.06,44.488 C114.994,44.488 116.027,43.294 116.027,41.527 L116.027,41.527 Z M114.485,41.54 C114.485,42.423 114.022,43.021 113.001,43.021 L111.279,43.021 L111.279,40.046 L113.001,40.046 C114.022,40.046 114.485,40.656 114.485,41.54 L114.485,41.54 Z" id="Fill-8" fill="#878787"></path>
                    </g>
                </g>
                <polygon id="Rectangle" fill="url(#linearGradient-1)" style="mix-blend-mode: multiply;" transform="translate(23.601349, 36.576691) rotate(157.000000) translate(-23.601349, -36.576691) " points="17.8258813 32.7240675 30.0659848 32.6110119 29.935379 40.3997924 17.1367129 40.5423695"></polygon>
                <polygon id="Rectangle" fill="url(#linearGradient-1)" style="mix-blend-mode: multiply;" transform="translate(42.487854, 28.327667) rotate(338.000000) translate(-42.487854, -28.327667) " points="36.3659511 24.6017054 48.9567443 24.2654979 48.8408531 32.3230235 36.0189637 32.3898365"></polygon>
            </g>
        </g>
    </g>
</svg>